<?xml version="1.0" encoding="utf-8"?>
<!-- Generator: Adobe Illustrator 16.0.0, SVG Export Plug-In . SVG Version: 6.00 Build 0)  -->
<!DOCTYPE svg PUBLIC "-//W3C//DTD SVG 1.1//EN" "http://www.w3.org/Graphics/SVG/1.1/DTD/svg11.dtd">
<svg version="1.1" id="Layer_1" xmlns="http://www.w3.org/2000/svg" xmlns:xlink="http://www.w3.org/1999/xlink" x="0px" y="0px"
	 width="958.361px" height="1000px" viewBox="0 0 958.361 1000" enable-background="new 0 0 958.361 1000" xml:space="preserve">
<path d="M957.268,211.143c-0.672-11.853-1.447-19.964-2.081-24.056l-0.212-1.694l-1.481-1.022c-1.693-1.27-3.773-2.081-6.597-3.034
	c-9.487-3.421-26.947-7.478-43.809-11.217c-15.766-3.633-30.723-6.63-37.459-8.429c-0.248-0.353-0.741-0.988-1.094-1.729
	c-2.61-4.232-6.703-12.027-10.37-19.505c-1.834-3.739-3.599-7.336-4.938-10.37c-1.376-3.033-2.398-5.503-2.752-6.632l-0.528-1.516
	l-1.306-0.776c-0.987-0.565-1.517-0.706-2.397-0.988c-2.964-0.917-8.642-2.364-16.014-4.056
	c-20.953-4.868-54.814-11.711-68.007-14.533c-0.211-0.459-0.423-0.917-0.706-1.622c-2.327-5.185-5.96-15.273-9.594-25.149
	c-3.738-10.265-7.372-20.07-10.088-25.644l-0.635-1.234l-1.199-0.564c-3.81-2.011-9.807-3.775-18.024-5.89
	c-28.535-7.125-82.292-16.332-131.674-24.303c-24.619-4.021-48.111-7.654-66.771-10.582c-18.606-3.033-32.398-5.186-37.302-6.455
	L481.385,0l-0.865,0.141c-5.519,1.27-22.75,3.739-45.572,6.949c-34.319,4.832-81.497,11.428-122.519,17.883
	c-20.477,3.21-39.523,6.49-54.549,9.523c-7.584,1.517-14.11,2.963-19.542,4.375c-5.309,1.445-9.418,2.75-12.31,4.197l-1.271,0.529
	l-0.633,1.271c-3.229,6.173-7.779,18.094-12.152,29.417c-2.152,5.643-4.18,11.075-6.066,15.52c-0.936,2.151-1.693,3.95-2.452,5.431
	c-0.177,0.6-0.423,1.165-0.759,1.588c-8.994,1.764-28.271,5.538-46.26,9.03c-9.576,1.798-18.941,3.668-26.049,5.255
	c-3.615,0.776-6.756,1.447-8.994,2.081c-1.146,0.318-2.17,0.529-3.034,0.847c-0.864,0.247-1.411,0.388-2.345,0.847l-1.341,0.776
	l-0.513,1.516c-0.457,1.377-1.904,4.622-3.633,8.36c-2.715,5.573-6.401,12.875-9.682,18.942c-1.781,3.033-3.264,5.714-4.656,7.865
	c-0.477,0.918-1.164,1.87-1.605,2.54l-0.211,0.283c-7.725,1.692-26.543,5.361-44.744,9.17c-9.682,2.011-19.223,4.198-26.877,6.173
	c-3.792,0.917-7.23,1.905-10,2.893c-2.717,0.846-4.814,1.692-6.578,2.927l-1.447,0.987l-0.211,1.658
	c-0.829,4.727-1.993,14.885-2.857,29.947C0.724,223.946,0,243.628,0,266.802c0,104.69,14.797,279.943,95.819,409.676
	c58.183,93.191,138.376,170.791,210.86,226.663c36.189,28.006,70.581,50.37,99.223,66.876
	c28.711,16.438,51.621,26.526,65.854,29.912h0.247l0.511,0.07h0.688l0.635-0.07c14.304-3.104,37.39-12.91,66.401-28.783
	c86.771-47.618,225.393-150.05,315.091-288.248c88.253-136.152,102.892-324.704,103.032-426.359
	C958.361,238.443,957.868,222.994,957.268,211.143 M473.343,953.792h-0.229c-49.224-11.288-235.959-124.865-341.688-294.315
	C25.501,490.044,43.703,232.517,48.218,206.838c7.584-5.22,67.723-15.836,80.687-19.046c3.21-3.209,17.478-30.546,19.647-36.966
	c3.791-2.187,64.902-13.475,79.856-16.543c3.687-5.291,14.991-38.447,20.6-49.029c23.333-11.604,210.649-34.532,231.953-38.941
	c21.641,4.728,208.338,30.899,231.372,42.822c5.256,10.829,16.119,44.162,19.718,49.416c14.92,3.387,75.695,15.662,79.505,17.848
	c2.115,6.455,15.802,34.215,18.977,37.425c12.909,3.315,72.873,14.92,80.352,20.493c4.091,25.679,18.023,283.312-90.757,451.158
	C711.311,833.089,522.883,943.422,473.343,953.792 M853.6,274.069c-0.493-9.313-1.128-15.732-1.48-18.942l-0.388-1.622l-1.305-1.059
	c-1.553-1.059-3.176-1.728-5.434-2.576c-7.618-2.715-21.233-5.961-34.425-8.854c-12.063-2.681-23.527-5.185-28.925-6.384
	c-0.141-0.423-0.281-0.565-0.423-0.882c-1.975-3.14-5.291-9.347-8.183-15.203c-1.447-2.928-2.822-5.785-3.951-8.183
	c-1.129-2.399-1.904-4.41-2.188-5.327l-0.493-1.411l-1.341-0.74c-0.881-0.529-1.27-0.6-1.976-0.882
	c-2.397-0.812-6.807-1.834-12.662-3.21c-16.155-3.668-42.187-9.066-52.698-11.394c-0.176-0.283-0.247-0.458-0.317-0.776
	c-1.903-4.056-4.797-11.816-7.688-19.646c-2.822-7.973-5.679-15.555-7.9-20.07l-0.636-1.271l-1.199-0.563
	c-3.14-1.694-7.866-3.034-14.25-4.762c-22.328-5.503-64.269-12.699-102.997-18.978c-19.259-2.998-37.706-5.925-52.292-8.289
	c-14.514-2.257-25.396-4.126-29.047-4.868l-0.899-0.211l-0.864,0.105c-4.339,0.847-17.777,2.856-35.695,5.433
	c-26.825,3.703-63.703,8.854-95.784,13.968c-15.996,2.539-30.951,5.079-42.732,7.478c-5.962,1.234-11.041,2.292-15.309,3.42
	c-4.232,1.165-7.442,2.151-9.824,3.316l-1.339,0.529l-0.548,1.305c-2.521,4.903-6.137,14.321-9.559,23.032
	c-1.693,4.481-3.368,8.784-4.779,12.099c-0.635,1.694-1.322,3.174-1.799,4.303c-0.106,0.282-0.316,0.529-0.389,0.705
	c-7.23,1.482-22.045,4.339-35.872,7.02c-7.584,1.587-14.813,2.963-20.299,4.268c-2.823,0.495-5.238,1.094-7.091,1.552
	c-0.935,0.248-1.729,0.529-2.451,0.635c-0.688,0.317-1.146,0.389-1.976,0.846l-1.376,0.671l-0.581,1.552
	c-0.247,0.987-1.306,3.457-2.681,6.42c-2.188,4.302-5.044,10.016-7.619,14.638c-1.287,2.47-2.521,4.55-3.527,6.173
	c-0.476,0.846-0.883,1.481-1.234,1.904c-6.172,1.411-20.67,4.233-34.674,7.196c-7.618,1.552-15.025,3.316-21.057,4.903
	c-2.998,0.564-5.68,1.446-7.849,2.186c-2.274,0.848-3.897,1.411-5.484,2.576l-1.446,0.953l-0.248,1.622
	c-0.617,3.668-1.41,11.674-2.239,23.563c-0.688,11.745-1.27,27.16-1.27,45.325c0,82.044,11.675,219.256,75.132,320.859
	c45.625,72.873,108.393,133.754,165.251,177.492c28.272,22.01,55.22,39.717,77.654,52.416c22.575,12.909,40.599,20.951,51.868,23.42
	l0.828,0.283l1.076-0.283h0.07c11.358-2.398,29.454-10.088,52.117-22.504c68.075-37.318,176.574-117.528,246.768-225.744
	c69.275-106.683,80.704-254.476,80.81-334.051C854.483,295.303,854.166,283.169,853.6,274.069 M512.69,818.981
	c-6.103,3.313-16.984,13.473-18.271,6.771c3.386-211.848,4.392-430.346,7.354-636.444c0.158-2.362,2.099-9.135,15.062-5.644
	c13.104,3.457,125.061,23.14,222.766,99.611c47.3,37,65.889,104.513-42.046,173.682C837.093,542.865,591.208,776.652,512.69,818.981
	 M241.832,254.705c-7.655,92.062,13.402,221.23,36.26,263.275c1.922-2.645,13.545-19.752,17.637-25.996
	c-11.271-60.775-20.953-242.042-12.471-258.62c6.386-6.209,51.287-23.774,69.594-27.337c-7.39,89.911,2.275,307.931,35.449,390.804
	c5.009-39.364,0.529-386.289,1.464-404.807c9.611-4.904,58.023-10.688,72.821-10.194c-3.969,20.529-4.728,526.181-4.551,643.075
	c0.035,11.923-33.668-17.212-55.59-48.111c-49.363-69.628-84.002-184.265-89.311-202.606c-4.092,4.586-20.158,26.384-31.357,41.27
	c-16.138,22.433-17.02,24.197-30.334,0.563c-7.092-11.005-13.545-23.279-19.436-36.118
	c-47.248-102.909-59.135-233.947-57.178-282.624C180.386,291.776,235.357,257.42,241.832,254.705 M674.909,311.493
	c9.277,6.456,15.873,12.945,20.177,19.401c4.339,6.49,6.42,13.122,6.42,19.47c0,7.725-2.894,14.673-7.267,20.67
	c-4.444,6.103-10.44,11.288-17.072,15.802c-5.432,3.563-23.563,16.191-43.104,29.523c-19.682,13.369-40.845,27.336-53.12,33.72
	c-3.527,1.906-6.208,3.246-8.678,3.881l-5.008,1.128l-0.106-5.15v-2.928c0-21.375,1.165-131.567,2.54-179.044l0.104-2.434
	l2.258-1.022c1.094-0.529,1.554-0.529,1.94-0.529c0.6,0,0.952,0.14,1.306,0.176l1.058,0.353c0.706,0.141,1.623,0.353,2.646,0.776
	c2.152,0.706,4.974,1.728,8.359,2.963c6.843,2.61,16.015,6.313,26.031,10.616C633.64,287.755,657.554,299.43,674.909,311.493
	 M655.014,510.749c1.554,1.481,4.375,4.48,6.703,9.242c2.47,4.938,4.479,11.781,4.479,20.546
	c-0.035,17.284-7.443,42.469-32.803,78.446c-14.64,25.255-40.458,54.532-54.392,69.488c-4.692,5.008-7.973,8.396-9.241,9.453
	l-0.952,1.058l-1.271,0.071l-5.925,6.56l0.282-11.074c0.211-11.782,0.423-46.561,0.846-82.116
	c0.354-35.625,0.882-72.309,1.763-88.481l0.143-2.539l2.151-1.094c0.07,0,0.952-0.458,2.081-0.987
	c1.199-0.705,2.716-1.623,4.585-2.646c3.739-1.869,8.713-4.27,14.463-6.88c11.428-4.867,25.818-9.699,39.646-9.699
	c5.008,0,10.017,0.635,14.674,2.363c4.69,1.658,8.958,4.269,12.626,8.043c0,0,0.07,0.105,0.07,0.246H655.014L655.014,510.749"/>
</svg>
